<svg width="600" height="400" xmlns="http://www.w3.org/2000/svg">
  <rect width="600" height="400" fill="#f8fafc"/>
  <rect x="50" y="50" width="500" height="300" fill="white" stroke="#e2e8f0" stroke-width="2" rx="8"/>
  
  <!-- Browser mockup -->
  <rect x="50" y="50" width="500" height="40" fill="#2563eb" rx="8 8 0 0"/>
  <circle cx="80" cy="70" r="6" fill="white" opacity="0.8"/>
  <circle cx="100" cy="70" r="6" fill="white" opacity="0.8"/>
  <circle cx="120" cy="70" r="6" fill="white" opacity="0.8"/>
  
  <!-- Content mockup -->
  <rect x="80" y="120" width="120" height="20" fill="#2563eb" rx="4"/>
  <rect x="80" y="160" width="200" height="8" fill="#64748b" opacity="0.5" rx="4"/>
  <rect x="80" y="180" width="180" height="8" fill="#64748b" opacity="0.3" rx="4"/>
  
  <rect x="350" y="120" width="80" height="80" fill="#f59e0b" opacity="0.2" rx="8"/>
  <rect x="450" y="120" width="80" height="80" fill="#10b981" opacity="0.2" rx="8"/>
  
  <rect x="80" y="220" width="150" height="8" fill="#64748b" opacity="0.3" rx="4"/>
  <rect x="80" y="240" width="120" height="8" fill="#64748b" opacity="0.3" rx="4"/>
  
  <text x="300" y="380" font-family="Arial, sans-serif" font-size="16" fill="#64748b" text-anchor="middle">E-commerce Platform</text>
</svg>