<svg width="600" height="400" xmlns="http://www.w3.org/2000/svg">
  <rect width="600" height="400" fill="#f8fafc"/>
  <rect x="50" y="50" width="500" height="300" fill="white" stroke="#e2e8f0" stroke-width="2" rx="8"/>
  
  <!-- Mobile app mockup -->
  <rect x="250" y="80" width="100" height="180" fill="#2563eb" rx="12"/>
  <rect x="260" y="95" width="80" height="150" fill="white" rx="4"/>
  
  <!-- App content -->
  <rect x="270" y="110" width="60" height="8" fill="#2563eb" rx="4"/>
  <rect x="270" y="130" width="15" height="15" fill="#10b981" rx="2"/>
  <rect x="290" y="130" width="35" height="8" fill="#64748b" opacity="0.5" rx="4"/>
  <rect x="270" y="155" width="15" height="15" fill="#f59e0b" rx="2"/>
  <rect x="290" y="155" width="35" height="8" fill="#64748b" opacity="0.5" rx="4"/>
  <rect x="270" y="180" width="15" height="15" fill="#ef4444" rx="2"/>
  <rect x="290" y="180" width="35" height="8" fill="#64748b" opacity="0.5" rx="4"/>
  
  <!-- Side panels -->
  <rect x="80" y="120" width="120" height="160" fill="#f59e0b" opacity="0.1" rx="8"/>
  <rect x="400" y="120" width="120" height="160" fill="#10b981" opacity="0.1" rx="8"/>
  
  <text x="300" y="380" font-family="Arial, sans-serif" font-size="16" fill="#64748b" text-anchor="middle">Task Management App</text>
</svg>